<svg version="1.1" id="welcome_text_first" xmlns="http://www.w3.org/2000/svg" xmlns:xlink="http://www.w3.org/1999/xlink" x="0px" y="0px" viewBox="0 0 97.96 20.51" style="enable-background:new 0 0 97.96 20.51;" xml:space="preserve">
	<g>
		<path d="M11.46,11.71H4.14l-1.2,2.64H0.08l6.28-14h2.88l6.28,14h-2.88L11.46,11.71z M7.8,3.29L5.2,9.25h5.2L7.8,3.29z"/>
		<path d="M23.58,14.35V9.19c0-1.5-0.82-2.64-2.38-2.64c-1.5,0-2.52,1.26-2.52,2.76v5.04h-2.42V4.47h2.18l0.16,1.34 c1-0.98,2-1.48,3.24-1.48c2.32,0,4.18,1.74,4.18,4.84v5.18H23.58z"/>
		<path d="M38.36,0.37v13.98h-2.28l-0.16-1.36c-0.76,1.18-1.98,1.58-3.18,1.58c-2.9,0-5.08-1.92-5.08-5.16c0-3.4,2.14-5.16,5.02-5.16 c1.04,0,2.66,0.56,3.24,1.58V0.37H38.36z M30.1,9.41c0,1.72,1.24,2.9,2.8,2.9c1.54,0,2.86-1.12,2.86-2.9 c0-1.72-1.32-2.88-2.86-2.88C31.34,6.53,30.1,7.63,30.1,9.41z"/>
		<path d="M42.74,4.49l0.18,1.14c0.76-1.22,1.78-1.4,2.78-1.4c1.02,0,2,0.4,2.54,0.94l-1.1,2.12c-0.5-0.42-0.96-0.64-1.76-0.64 c-1.28,0-2.46,0.68-2.46,2.5v5.2h-2.44V4.49H42.74z"/>
		<path d="M58.96,9.43c0,2.84-1.94,5.14-5.14,5.14c-3.2,0-5.12-2.3-5.12-5.14c0-2.82,1.96-5.14,5.1-5.14S58.96,6.61,58.96,9.43z M51.14,9.43c0,1.5,0.9,2.9,2.68,2.9c1.78,0,2.68-1.4,2.68-2.9c0-1.48-1.04-2.92-2.68-2.92C52.06,6.51,51.14,7.95,51.14,9.43z"/>
		<path d="M68.38,3.49l1.8,1.36l-1.1,1.4c0.76,0.86,1.04,1.84,1.04,2.92c0,1.22-0.46,2.94-2.08,3.68c1.64,0.82,2.04,2,2.04,3.26 c0,2.72-2.08,4.4-4.94,4.4s-5-1.74-5-4.4h2.42c0,1.28,1.18,2.12,2.58,2.12s2.5-0.76,2.5-2.12s-1.28-1.98-2.5-1.98 c-3.08,0-5-1.88-5-4.96c0-3.08,2.24-5,5-5c0.78,0,1.58,0.1,2.26,0.56L68.38,3.49z M62.56,9.17c0,1.72,1.16,2.74,2.58,2.74 c1.4,0,2.56-1.04,2.56-2.74c0-1.7-1.16-2.78-2.56-2.78C63.72,6.39,62.56,7.45,62.56,9.17z"/>
		<path d="M81.46,10.29h-7.7c0.16,1.22,1.22,2.1,2.94,2.1c0.9,0,2.08-0.34,2.64-0.92l1.56,1.54c-1.04,1.08-2.74,1.6-4.24,1.6 c-3.4,0-5.42-2.1-5.42-5.26c0-3,2.04-5.16,5.24-5.16C79.78,4.19,81.84,6.23,81.46,10.29z M73.8,8.27h5.32 c-0.16-1.28-1.16-1.92-2.56-1.92C75.24,6.35,74.16,6.99,73.8,8.27z M79.36,0.05h-2.88L75,2.77v0.12h2.16l2.2-2.74V0.05z"/>
		<path d="M90.6,14.35V9.19c0-1.5-0.82-2.64-2.38-2.64c-1.5,0-2.52,1.26-2.52,2.76v5.04h-2.42V4.47h2.18l0.16,1.34 c1-0.98,2-1.48,3.24-1.48c2.32,0,4.18,1.74,4.18,4.84v5.18H90.6z"/>
		<path d="M97.96,13.09c0,1.9-2.88,1.9-2.88,0C95.08,11.19,97.96,11.19,97.96,13.09z"/>
	</g>
</svg>
