<svg version="1.1" id="welcome_text_second" xmlns="http://www.w3.org/2000/svg" xmlns:xlink="http://www.w3.org/1999/xlink" x="0px" y="0px" viewBox="0 0 208.83 14.78" style="enable-background:new 0 0 208.83 14.78;" xml:space="preserve">
	<g>
		<path d="M2.76,0.44V12h7.2v2.44H0.12v-14H2.76z"/>
		<path d="M19.86,4.58h2.34v9.86h-2.3L19.78,13c-0.56,1.16-2.1,1.72-3.2,1.74c-2.92,0.02-5.08-1.78-5.08-5.24 c0-3.4,2.26-5.18,5.14-5.16c1.32,0,2.58,0.62,3.14,1.6L19.86,4.58z M13.94,9.5c0,1.88,1.3,3,2.92,3c3.84,0,3.84-5.98,0-5.98 C15.24,6.52,13.94,7.62,13.94,9.5z"/>
		<path d="M26.5,0.45v5.46c0.58-1.02,2.2-1.58,3.24-1.58c2.88,0,5.02,1.76,5.02,5.16c0,3.24-2.18,5.16-5.08,5.16 c-1.2,0-2.42-0.4-3.18-1.58l-0.16,1.36h-2.28V0.45H26.5z M26.66,9.5c0,1.78,1.32,2.9,2.86,2.9c1.56,0,2.8-1.18,2.8-2.9 c0-1.78-1.24-2.88-2.8-2.88C27.98,6.62,26.66,7.78,26.66,9.5z"/>
		<path d="M46.36,9.52c0,2.84-1.94,5.14-5.14,5.14s-5.12-2.3-5.12-5.14c0-2.82,1.96-5.14,5.1-5.14C44.34,4.38,46.36,6.7,46.36,9.52z M38.54,9.52c0,1.5,0.9,2.9,2.68,2.9c1.78,0,2.68-1.4,2.68-2.9c0-1.48-1.04-2.92-2.68-2.92C39.46,6.6,38.54,8.04,38.54,9.52z"/>
		<path d="M50.3,4.58l0.18,1.14c0.76-1.22,1.78-1.4,2.78-1.4c1.02,0,2,0.4,2.54,0.94l-1.1,2.12c-0.5-0.42-0.96-0.64-1.76-0.64 c-1.28,0-2.46,0.68-2.46,2.5v5.2h-2.44V4.58H50.3z"/>
		<path d="M64.54,4.58h2.34v9.86h-2.3L64.46,13c-0.56,1.16-2.1,1.72-3.2,1.74c-2.92,0.02-5.08-1.78-5.08-5.24 c0-3.4,2.26-5.18,5.14-5.16c1.32,0,2.58,0.62,3.14,1.6L64.54,4.58z M58.62,9.5c0,1.88,1.3,3,2.92,3c3.84,0,3.84-5.98,0-5.98 C59.92,6.52,58.62,7.62,58.62,9.5z"/>
		<path d="M71.96,1.8v2.8h2.72v2.1h-2.74v4.26c0,0.94,0.52,1.4,1.28,1.4c0.38,0,0.82-0.12,1.18-0.3l0.68,2.08 c-0.7,0.28-1.28,0.4-2.02,0.42c-2.14,0.08-3.54-1.14-3.54-3.6V6.7h-1.84V4.6h1.84V2.06L71.96,1.8z"/>
		<path d="M86.3,9.52c0,2.84-1.94,5.14-5.14,5.14s-5.12-2.3-5.12-5.14c0-2.82,1.96-5.14,5.1-5.14C84.28,4.38,86.3,6.7,86.3,9.52z M78.48,9.52c0,1.5,0.9,2.9,2.68,2.9c1.78,0,2.68-1.4,2.68-2.9c0-1.48-1.04-2.92-2.68-2.92C79.4,6.6,78.48,8.04,78.48,9.52z"/>
		<path d="M90.24,4.58l0.18,1.14c0.76-1.22,1.78-1.4,2.78-1.4c1.02,0,2,0.4,2.54,0.94l-1.1,2.12c-0.5-0.42-0.96-0.64-1.76-0.64 c-1.28,0-2.46,0.68-2.46,2.5v5.2h-2.44V4.58H90.24z"/>
		<path d="M99.32,1.8c0,1.9-2.88,1.9-2.88,0S99.32-0.11,99.32,1.8z M96.66,4.54v9.9h2.44v-9.9H96.66z"/>
		<path d="M111.32,9.52c0,2.84-1.94,5.14-5.14,5.14s-5.12-2.3-5.12-5.14c0-2.82,1.96-5.14,5.1-5.14 C109.3,4.38,111.32,6.7,111.32,9.52z M103.5,9.52c0,1.5,0.9,2.9,2.68,2.9c1.78,0,2.68-1.4,2.68-2.9c0-1.48-1.04-2.92-2.68-2.92 C104.42,6.6,103.5,8.04,103.5,9.52z"/>
		<path d="M127.28,0.45v13.98H125l-0.16-1.36c-0.76,1.18-1.98,1.58-3.18,1.58c-2.9,0-5.08-1.92-5.08-5.16c0-3.4,2.14-5.16,5.02-5.16 c1.04,0,2.66,0.56,3.24,1.58V0.45H127.28z M119.02,9.5c0,1.72,1.24,2.9,2.8,2.9c1.54,0,2.86-1.12,2.86-2.9 c0-1.72-1.32-2.88-2.86-2.88C120.26,6.62,119.02,7.72,119.02,9.5z"/>
		<path d="M131.7,10.38c0.16,1.22,1.22,2.1,2.94,2.1c0.9,0,2.08-0.34,2.64-0.92l1.56,1.54c-1.04,1.08-2.74,1.6-4.24,1.6 c-3.4,0-5.42-2.1-5.42-5.26c0-3,2.04-5.16,5.24-5.16c3.3,0,5.36,2.04,4.98,6.1H131.7z M137.06,8.36c-0.16-1.28-1.16-1.92-2.56-1.92 c-1.32,0-2.4,0.64-2.76,1.92H137.06z"/>
		<path d="M153.14,4.58h2.34v9.86h-2.3L153.06,13c-0.56,1.16-2.1,1.72-3.2,1.74c-2.92,0.02-5.08-1.78-5.08-5.24 c0-3.4,2.26-5.18,5.14-5.16c1.32,0,2.58,0.62,3.14,1.6L153.14,4.58z M147.22,9.5c0,1.88,1.3,3,2.92,3c3.84,0,3.84-5.98,0-5.98 C148.52,6.52,147.22,7.62,147.22,9.5z"/>
		<path d="M164.8,14.44V9.28c0-1.5-0.82-2.64-2.38-2.64c-1.5,0-2.52,1.26-2.52,2.76v5.04h-2.42V4.56h2.18l0.16,1.34 c1-0.98,2-1.48,3.24-1.48c2.32,0,4.18,1.74,4.18,4.84v5.18H164.8z"/>
		<path d="M177.08,5.94l0.08-1.36h2.34v9.86h-2.3L177.08,13c-0.56,1.16-2.1,1.72-3.2,1.74c-2.92,0.02-5.08-1.78-5.08-5.24 c0-3.4,2.26-5.18,5.14-5.16C175.26,4.34,176.52,4.96,177.08,5.94z M174.16,6.52c-1.62,0-2.92,1.1-2.92,2.98c0,1.88,1.3,3,2.92,3 C178,12.5,178,6.52,174.16,6.52z M176.94,0.23h-2.88l-1.48,2.72v0.12h2.16l2.2-2.74V0.23z"/>
		<path d="M183.98,0.45v13.98h-2.42V0.45H183.98z"/>
		<path d="M192.56,7.2c-0.7-0.66-1.5-0.88-2.44-0.88c-1.16,0-1.8,0.36-1.8,0.98c0,0.64,0.58,1,1.84,1.08 c1.86,0.12,4.22,0.54,4.22,3.16c0,1.74-1.42,3.24-4.24,3.24c-1.56,0-3.12-0.26-4.56-1.76l1.2-1.74c0.7,0.78,2.3,1.36,3.4,1.38 c0.92,0.02,1.78-0.46,1.78-1.18c0-0.68-0.56-0.96-1.96-1.04c-1.86-0.14-4.08-0.82-4.08-3.06c0-2.28,2.36-3.08,4.16-3.08 c1.54,0,2.7,0.3,3.84,1.3L192.56,7.2z"/>
		<path d="M198.6,1.8c0,1.9-2.88,1.9-2.88,0S198.6-0.11,198.6,1.8z M195.94,4.54v9.9h2.44v-9.9H195.94z"/>
		<path d="M207.02,7.2c-0.7-0.66-1.5-0.88-2.44-0.88c-1.16,0-1.8,0.36-1.8,0.98c0,0.64,0.58,1,1.84,1.08 c1.86,0.12,4.22,0.54,4.22,3.16c0,1.74-1.42,3.24-4.24,3.24c-1.56,0-3.12-0.26-4.56-1.76l1.2-1.74c0.7,0.78,2.3,1.36,3.4,1.38 c0.92,0.02,1.78-0.46,1.78-1.18c0-0.68-0.56-0.96-1.96-1.04c-1.86-0.14-4.08-0.82-4.08-3.06c0-2.28,2.36-3.08,4.16-3.08 c1.54,0,2.7,0.3,3.84,1.3L207.02,7.2z"/>
	</g>
</svg>