<svg version="1.1" id="welcome_text_third" xmlns="http://www.w3.org/2000/svg" xmlns:xlink="http://www.w3.org/1999/xlink" x="0px" y="0px" viewBox="0 0 70.6 20.5" style="enable-background:new 0 0 70.6 20.5;" xml:space="preserve">
	<g>
		<path d="M9.4,15.9c-1.1,1.1-2.4,1.6-3.8,1.6c-2.9,0-5.3-1.7-5.3-5.3S2.7,7,5.6,7C7,7,8.1,7.4,9.2,8.4l-1.6,1.6 C7,9.5,6.3,9.3,5.6,9.3c-1.7,0-2.9,1.2-2.9,2.9c0,1.9,1.3,2.9,2.8,2.9c0.8,0,1.6-0.2,2.2-0.8L9.4,15.9z"/>
		<path d="M12.9,3.1v14.1h-2.4V3.1H12.9z"/>
		<path d="M15.1,17.2V7.6h2.6v9.6H15.1z M18.6,3.1H16L15.1,6v0.1h2L18.6,3.1L18.6,3.1z"/>
		<path d="M27.2,17.2V12c0-1.5-0.8-2.7-2.4-2.7c-1.5,0-2.5,1.3-2.5,2.8v5.1h-2.4v-10H22l0.2,1.4c1-1,2-1.5,3.3-1.5 c2.3,0,4.2,1.8,4.2,4.9v5.2H27.2z"/>
		<path d="M34.5,4.4c0,1.9-2.9,1.9-2.9,0C31.6,2.5,34.5,2.5,34.5,4.4z M31.8,7.2v10h2.5v-10H31.8z"/>
		<path d="M45,15.9c-1.2,1.1-2.4,1.6-3.8,1.6c-2.9,0-5.3-1.7-5.3-5.3S38.3,7,41.2,7c1.4,0,2.5,0.4,3.6,1.5l-1.5,1.6 c-0.6-0.5-1.3-0.8-2-0.8c-1.7,0-2.9,1.2-2.9,2.9c0,1.9,1.3,2.9,2.8,2.9c0.8,0,1.6-0.2,2.2-0.8L45,15.9z"/>
		<path d="M56.2,12.2c0,2.9-2,5.2-5.2,5.2c-3.2,0-5.2-2.3-5.2-5.2c0-2.8,2-5.2,5.1-5.2C54.1,7,56.2,9.4,56.2,12.2z M48.3,12.2 c0,1.5,0.9,2.9,2.7,2.9s2.7-1.4,2.7-2.9c0-1.5-1-2.9-2.7-2.9C49.2,9.3,48.3,10.7,48.3,12.2z"/>
		<path d="M64.3,9.9C63.6,9.2,62.8,9,61.9,9c-1.2,0-1.8,0.4-1.8,1c0,0.6,0.6,1,1.8,1.1c1.9,0.1,4.3,0.5,4.3,3.2 c0,1.8-1.4,3.3-4.3,3.3c-1.6,0-3.1-0.3-4.6-1.8l1.2-1.8c0.7,0.8,2.3,1.4,3.4,1.4c0.9,0,1.8-0.5,1.8-1.2c0-0.7-0.6-1-2-1.1 c-1.9-0.1-4.1-0.8-4.1-3.1C57.6,7.8,60,7,61.8,7c1.5,0,2.7,0.3,3.9,1.3L64.3,9.9z"/>
		<path d="M70.6,15.9c0,1.9-2.9,1.9-2.9,0C67.7,14,70.6,14,70.6,15.9z"/>
	</g>
</svg>