<?xml version="1.0" encoding="utf-8"?>

<svg version="1.1" id="Layer_1" xmlns="http://www.w3.org/2000/svg" xmlns:xlink="http://www.w3.org/1999/xlink" x="0px" y="0px" viewBox="0 0 567.1 212.68" style="enable-background:new 0 0 567.1 212.68;" xml:space="preserve">
	<style type="text/css">
		.st0{fill:#0086C9;}
		.st1{fill:#435262;}
		.st2{fill:url(#SVGID_1_);}
		.st3{fill:url(#SVGID_00000160150333158858968000000002528703453805653143_);}
		.st4{fill:url(#SVGID_00000043433517575672971440000002427350253711764143_);}
	</style>
	<g id="logo--sub">
		<path class="st0" d="M125.76,153.94v3.46h-11.03v-16.25h4.13v12.79H125.76z"/>
		<path class="st0" d="M131.49,154.4l-1.18,3h-4.25l7.01-16.25h4.25l6.85,16.25h-4.41l-1.16-3H131.49z M135.06,145.25l-2.37,6.01
			h4.69L135.06,145.25z"/>
		<path class="st0" d="M153.36,141.14c3.65,0,5.97,1.58,5.97,4.06c0,1.72-1.07,3.09-2.79,3.58c2.04,0.39,3.34,2,3.34,4.11
			c0,2.76-2.41,4.5-6.25,4.5h-7.96v-16.25H153.36z M149.78,147.64h3.34c1.21,0,1.97-0.65,1.97-1.69c0-1.05-0.77-1.65-1.97-1.65h-3.34
			V147.64z M149.78,154.21h3.34c1.53,0,2.48-0.67,2.48-1.83c0-1.09-0.95-1.76-2.48-1.76h-3.34V154.21z"/>
		<path class="st0" d="M178.77,149.25c0,4.74-3.76,8.34-8.8,8.34c-5.01,0-8.78-3.58-8.78-8.34c0-4.74,3.76-8.24,8.78-8.24
			C175.01,141,178.77,144.53,178.77,149.25z M165.42,149.27c0,2.74,2.11,4.85,4.6,4.85c2.51,0,4.5-2.11,4.5-4.85
			c0-2.74-2-4.81-4.5-4.81S165.42,146.53,165.42,149.27z"/>
		<path class="st0" d="M188.33,152.82h-0.12h-3.13v4.57h-4.13v-16.25h7.27c4.3,0,6.76,2.04,6.76,5.66c0,2.48-1.04,4.27-2.95,5.22
			l3.41,5.36h-4.69L188.33,152.82z M188.22,149.57c1.79,0,2.83-0.91,2.83-2.62c0-1.69-1.04-2.55-2.83-2.55h-3.13v5.18H188.22z"/>
		<path class="st0" d="M201.45,154.4l-1.18,3h-4.25l7.01-16.25h4.25l6.85,16.25h-4.41l-1.16-3H201.45z M205.02,145.25l-2.37,6.01
			h4.69L205.02,145.25z"/>
		<path class="st0" d="M221.41,144.46v12.93h-4.13v-12.93h-4.85v-3.34h13.88v3.34H221.41z"/>
		<path class="st0" d="M243.74,149.25c0,4.74-3.76,8.34-8.8,8.34c-5.01,0-8.78-3.58-8.78-8.34c0-4.74,3.76-8.24,8.78-8.24
			C239.98,141,243.74,144.53,243.74,149.25z M230.39,149.27c0,2.74,2.11,4.85,4.6,4.85c2.51,0,4.5-2.11,4.5-4.85
			c0-2.74-2-4.81-4.5-4.81S230.39,146.53,230.39,149.27z"/>
		<path class="st0" d="M253.3,152.82h-0.12h-3.13v4.57h-4.13v-16.25h7.27c4.3,0,6.76,2.04,6.76,5.66c0,2.48-1.04,4.27-2.95,5.22
			l3.41,5.36h-4.69L253.3,152.82z M253.18,149.57c1.79,0,2.83-0.91,2.83-2.62c0-1.69-1.04-2.55-2.83-2.55h-3.13v5.18H253.18z"/>
		<path class="st0" d="M262.72,157.4v-16.25h4.13v16.25H262.72z"/>
		<path class="st0" d="M286.61,149.25c0,4.74-3.76,8.34-8.8,8.34c-5.01,0-8.78-3.58-8.78-8.34c0-4.74,3.76-8.24,8.78-8.24
			C282.85,141,286.61,144.53,286.61,149.25z M273.26,149.27c0,2.74,2.11,4.85,4.6,4.85c2.51,0,4.5-2.11,4.5-4.85
			c0-2.74-2-4.81-4.5-4.81S273.26,146.53,273.26,149.27z"/>
		<path class="st0" d="M313.72,143.74l-2.39,2.83c-1.07-1.3-2.65-2.11-4.09-2.11c-2.58,0-4.53,2.04-4.53,4.71
			c0,2.72,1.95,4.78,4.53,4.78c1.37,0,2.95-0.74,4.09-1.9l2.41,2.55c-1.74,1.79-4.32,2.97-6.71,2.97c-4.9,0-8.54-3.6-8.54-8.36
			c0-4.69,3.74-8.22,8.68-8.22C309.59,141,312.09,142.07,313.72,143.74z"/>
		<path class="st0" d="M326.65,153.94v3.46h-11.03v-16.25h4.13v12.79H326.65z"/>
		<path class="st0" d="M328.62,157.4v-16.25h4.13v16.25H328.62z"/>
		<path class="st0" d="M347.35,157.4l-7.48-10.01v10.01H336v-16.25h3.65l7.5,10.03v-10.03H351v16.25H347.35z"/>
		<path class="st0" d="M354.24,157.4v-16.25h4.13v16.25H354.24z"/>
		<path class="st0" d="M375.79,143.74l-2.39,2.83c-1.07-1.3-2.65-2.11-4.09-2.11c-2.58,0-4.53,2.04-4.53,4.71
			c0,2.72,1.95,4.78,4.53,4.78c1.37,0,2.95-0.74,4.09-1.9l2.41,2.55c-1.74,1.79-4.32,2.97-6.71,2.97c-4.9,0-8.54-3.6-8.54-8.36
			c0-4.69,3.74-8.22,8.68-8.22C371.65,141,374.16,142.07,375.79,143.74z"/>
		<path class="st0" d="M393.91,149.25c0,4.74-3.76,8.34-8.8,8.34c-5.01,0-8.78-3.58-8.78-8.34c0-4.74,3.76-8.24,8.78-8.24
			C390.15,141,393.91,144.53,393.91,149.25z M380.56,149.27c0,2.74,2.11,4.85,4.6,4.85c2.51,0,4.5-2.11,4.5-4.85
			c0-2.74-2-4.81-4.5-4.81C382.65,144.46,380.56,146.53,380.56,149.27z"/>
	</g>
	<g id="logo--main">
		<path id="XMLID_164_" class="st1" d="M172.53,62.44l13.31,67.31c0.43,1.81-0.47,2.71-2.69,2.71h-9.61c-1.79,0-2.82-0.76-3.07-2.29
			l-1.81-10.78h-30.88l-6.06,11.19c-0.8,1.25-2.01,1.88-3.62,1.88h-10.58c-1.25,0-2.07-0.3-2.46-0.89c-0.39-0.59-0.33-1.36,0.19-2.31
			l38.76-67.53c0.71-1.06,1.91-1.59,3.6-1.59h11.73C171.2,60.14,172.26,60.91,172.53,62.44z M161.36,75.5h-0.26l-17.31,32.78h23
			L161.36,75.5z"/>
		<path id="XMLID_162_" class="st1" d="M226.64,129.71l5.92-32.19c0.3-1.34,0.45-2.53,0.45-3.57c0-5.21-3.07-7.82-9.21-7.82
			c-7.21,0-11.53,3.79-12.95,11.38l-6,32.64c-0.27,1.57-1.32,2.35-3.18,2.35h-8.33c-2.29,0-3.22-0.93-2.78-2.79l6.19-33.64
			c2.57-13.63,11.82-20.44,27.75-20.44c7.43,0,13.17,1.44,17.19,4.3c4.03,2.87,6.04,6.98,6.04,12.35c0,0.97-0.23,2.49-0.68,4.56
			l-6.13,33.31c-0.27,1.57-1.32,2.35-3.18,2.35h-8.33C227.12,132.5,226.2,131.57,226.64,129.71z"/>
		<path id="XMLID_159_" class="st1" d="M311.26,55.1l-11.04,57.28c-2.57,13.5-11.99,20.25-28.27,20.25c-7.52,0-13.36-1.45-17.52-4.36
			c-4.16-2.9-6.24-7-6.24-12.3c0-0.94,0.18-2.43,0.53-4.46l2.95-15.27c2.62-13.55,11.38-20.33,26.28-20.33
			c6.21,0,10.74,1.6,13.58,4.79l0.27-0.07l3.82-19.54L311.26,55.1z M285.85,110.95l2.65-13.55c0.18-0.72,0.27-1.77,0.27-3.14
			c0-5.42-3.13-8.13-9.38-8.13c-7.67,0-12.2,3.81-13.61,11.44l-2.6,13.49c-0.26,1.23-0.39,2.36-0.39,3.37c0,5.3,3.23,7.95,9.68,7.95
			C279.97,122.38,284.44,118.57,285.85,110.95z"/>
		<path id="XMLID_157_" class="st1" d="M301.79,130.03l6.17-33.73c2.66-13.78,11.2-20.67,25.62-20.67c6.1,0,11.19,1.12,15.25,3.37
			c1.59,0.9,1.86,2.1,0.8,3.6l-3.45,4.72c-1.06,1.35-2.48,1.57-4.25,0.67c-2.3-1.2-4.82-1.8-7.56-1.8c-6.63,0-10.61,3.41-11.94,10.22
			l-6.37,34.06c-0.27,1.58-1.32,2.37-3.18,2.37h-8.33C302.27,132.84,301.34,131.9,301.79,130.03z"/>
		<path id="XMLID_154_" class="st1" d="M377.31,75.62c7.52,0,13.33,1.46,17.44,4.38c4.11,2.92,6.17,7.08,6.17,12.47
			c0,1.38-0.15,2.84-0.45,4.37l-2.95,15.35c-2.62,13.62-12.01,20.43-28.18,20.44c-7.61,0-13.46-1.46-17.58-4.38
			c-4.11-2.92-6.17-7.04-6.17-12.36c0-1.31,0.18-2.81,0.53-4.49l2.95-15.35C351.7,82.42,361.11,75.61,377.31,75.62z M369.88,122.34
			c7.6,0,12.11-3.83,13.53-11.49l2.6-13.56c0.21-1.24,0.31-2.37,0.31-3.4c0-5.33-3.2-7.99-9.59-7.99c-7.45,0-11.87,3.84-13.28,11.52
			l-2.6,13.56c-0.35,1.24-0.53,2.37-0.53,3.39C360.33,119.68,363.51,122.34,369.88,122.34z"/>
		<path id="XMLID_151_" class="st1" d="M408.15,137.98c3.63,2.56,8.09,3.84,13.4,3.84c8.13,0,12.82-3.5,14.06-10.49l0.5-2.71h-0.26
			c-3.18,2.41-7.46,3.61-12.84,3.61c-6.72,0-11.92-1.47-15.59-4.4c-3.67-2.93-5.5-7.07-5.5-12.41c0-1.81,0.18-3.5,0.53-5.08
			l2.55-13.7c2.61-14.04,12.02-21.05,28.22-21.05c7.51,0,13.35,1.51,17.51,4.51c4.16,3.01,6.23,7.26,6.23,12.75
			c0,0.98-0.23,2.51-0.68,4.61l-6.47,34.75c-1.23,6.47-4.25,11.46-9.05,14.96c-4.8,3.5-11.16,5.25-19.08,5.25
			c-9.2,0-16.4-1.99-21.62-5.98L408.15,137.98z M439.6,109.88l2.22-11.95c0.28-1.28,0.41-2.44,0.41-3.5c0-5.49-3.2-8.23-9.59-8.23
			c-7.36,0-11.74,3.96-13.14,11.87l-2.34,11.84c-0.35,1.2-0.53,2.37-0.53,3.49c0,5.48,3.23,8.22,9.69,8.22
			C433.84,121.63,438.27,117.71,439.6,109.88z"/>
		<path id="XMLID_148_" class="st1" d="M488.54,75.63c7.43,0,13.15,1.45,17.18,4.36c4.02,2.91,6.04,7.05,6.04,12.42
			c0,1.38-0.13,2.83-0.4,4.36l-1.72,8.72c-0.27,1.53-1.32,2.29-3.17,2.29h-33.32l-0.4,2.2c-0.35,1.31-0.53,2.54-0.53,3.7
			c0,2.97,0.95,5.13,2.85,6.48c1.9,1.34,4.88,2.01,8.95,2.01c4.33,0,8.31-1.27,11.94-3.81c1.77-1.09,3.23-0.94,4.38,0.44l3.32,4.36
			c0.97,1.38,0.75,2.54-0.66,3.49c-5.93,3.85-12.6,5.78-20.03,5.78c-8.22,0-14.53-1.47-18.9-4.41c-4.38-2.94-6.57-7.21-6.57-12.8
			c0-1.53,0.18-3.12,0.53-4.8l2.78-14.42C463.43,82.41,472.67,75.63,488.54,75.63z M488.35,85.88c-3.77,0-6.73,0.93-8.88,2.78
			c-2.15,1.86-3.62,4.75-4.41,8.68l-0.27,1.5h22.39l0.26-1.63c0.26-1.31,0.4-2.51,0.4-3.6C497.83,88.46,494.67,85.88,488.35,85.88z"
			/>
		<path id="XMLID_146_" class="st1" d="M546.01,129.61l5.92-32.13c0.3-1.34,0.45-2.53,0.45-3.57c0-5.2-3.07-7.8-9.21-7.8
			c-7.21,0-11.53,3.79-12.95,11.36l-6.01,32.58c-0.26,1.57-1.32,2.35-3.17,2.35h-8.33c-2.29,0-3.22-0.93-2.78-2.79l6.19-33.58
			c2.57-13.6,11.82-20.41,27.75-20.41c7.43,0,13.17,1.43,17.19,4.29c4.03,2.86,6.04,6.97,6.04,12.33c0,0.96-0.23,2.48-0.68,4.55
			l-6.13,33.25c-0.27,1.57-1.32,2.35-3.18,2.35h-8.33C546.49,132.4,545.56,131.47,546.01,129.61z"/>
	</g>
	<linearGradient id="SVGID_1_" gradientUnits="userSpaceOnUse" x1="101.506" y1="194.9391" x2="16.2193" y2="148.55">
		<stop  offset="0" style="stop-color:#058EE2"/>
		<stop  offset="1" style="stop-color:#054BE2"/>
	</linearGradient>
	<path class="st2" d="M97.15,212.68c-0.48-7.33-10.41-12.88-16.13-15.77c-8.39-4.24-17.65-6.95-26.5-10.06
		c-9.37-3.3-18.74-6.39-28.37-8.86c-8.03-2.06-15.84-4.59-21.64-10.85c-6.23-6.72-1.6-13.75,4.51-18.6c3.06-2.43,6.7-4.47,10.26-6.07
		c4.02-1.8,6.85-3.77,11.39-2.59c9,2.34,17.71,6.2,26.53,9.14c9.1,3.04,18.68,5.4,27.19,9.96c8.36,4.48,13.18,11.98,13.82,21.47
		C98.44,183.9,99.49,212.68,97.15,212.68z"/>
	<linearGradient id="SVGID_00000045582839200713315990000009181973686459465098_" gradientUnits="userSpaceOnUse" x1="0" y1="108.8223" x2="99.6994" y2="108.8223">
		<stop  offset="0" style="stop-color:#058EE2"/>
		<stop  offset="1" style="stop-color:#054BE2"/>
	</linearGradient>
	<path style="fill:url(#SVGID_00000045582839200713315990000009181973686459465098_);" d="M0.06,133.44c0-4.29-0.06-8.59-0.06-12.86
		c0-8.53,3.77-13.87,10.41-18.04c3.66-2.3,7.74-3.67,11.86-4.78c13.14-3.54,26.18-7.39,39.13-11.53c8.48-2.72,17.11-5.21,24.7-10.18
		c4.2-2.75,8.03-5.85,10.73-10.16c0.43-0.69,0.86-1.58,1.76-1.33c1.09,0.29,0.86,1.38,0.9,2.27c0.44,9.07,0.14,18.12-0.44,27.17
		c-0.7,10.85-6.23,18.4-15.82,23.17c-6.88,3.42-14.31,5.31-21.57,7.67c-8.01,2.61-16.03,5.2-24.02,7.88
		c-5.84,1.96-11.88,3.34-17.43,6.13c-6.69,3.36-13.21,6.96-17.85,13.11c-0.42,0.56-0.75,1.38-1.54,1.18
		c-1.02-0.26-0.77-1.29-0.77-2.03c-0.03-5.88-0.02-11.77-0.02-17.65C0.04,133.44,0.05,133.44,0.06,133.44z"/>
	<linearGradient id="SVGID_00000098905960682546029640000002375572509571762090_" gradientUnits="userSpaceOnUse" x1="5.6212" y1="26.9818" x2="96.7498" y2="57.5184">
		<stop  offset="0" style="stop-color:#058EE2"/>
		<stop  offset="1" style="stop-color:#054BE2"/>
	</linearGradient>
	<path style="fill:url(#SVGID_00000098905960682546029640000002375572509571762090_);" d="M2.49,0c2.26,2.5,3.61,5.3,5.93,7.35
		c7.59,6.69,16.41,11.04,25.86,14.41C47,26.3,59.59,31.21,72.32,35.7c4.88,1.72,9.83,3.27,14.17,6.08c4.95,3.2,9.26,6.96,11.11,13.06
		c1.17,3.86-0.9,6.5-2.63,9c-3.99,5.79-8.06,8.93-14.39,11.8c-2.09,0.95-5.89,0.58-7.84-0.24C62.32,71,51.63,67.32,40.98,63.53
		c-8.89-3.16-18.21-4.98-26.87-8.82c-3.13-1.39-5.89-3.37-8.27-5.79c-2.68-2.72-4.06-5.91-4-9.92c0.18-11.76,0.07-23.53,0.1-35.29
		C1.94,2.64,1.7,1.52,2.49,0z"/>
	<polygon class="st1" points="502.87,60.08 488.33,72.36 482.28,66.97 494.78,52.65 "/>
</svg>
