<svg version="1.1" id="welcome_svg_third" class="welcome--text" xmlns="http://www.w3.org/2000/svg" xmlns:xlink="http://www.w3.org/1999/xlink" x="0px" y="0px" viewBox="0 0 144.9 13.4" style="enable-background:new 0 0 144.9 13.4;" xml:space="preserve">
	<g>
		<path d="M7.1,2.8l-3.9,9.1H1.5l1.2-2.8L0.1,2.8h1.8l1,2.8l0.6,1.8l0.7-1.8l1.2-2.8H7.1z"/>
		<path d="M17.2,0.1v9.1h-1.5l-0.1-0.9c-0.5,0.8-1.3,1-2.1,1c-1.9,0-3.3-1.2-3.3-3.4c0-2.2,1.4-3.4,3.3-3.4c0.7,0,1.7,0.4,2.1,1V0.1 H17.2z M11.9,6c0,1.1,0.8,1.9,1.8,1.9c1,0,1.9-0.7,1.9-1.9c0-1.1-0.9-1.9-1.9-1.9C12.7,4.1,11.9,4.8,11.9,6z"/>
		<path d="M20.3,1c0,1.2-1.9,1.2-1.9,0S20.3-0.3,20.3,1z M18.6,2.8v6.4h1.6V2.8H18.6z"/>
		<path d="M26.7,2.8h1.5v6.4h-1.5l-0.1-0.9c-0.4,0.8-1.4,1.1-2.1,1.1c-1.9,0-3.3-1.2-3.3-3.4c0-2.2,1.5-3.4,3.3-3.4 c0.9,0,1.7,0.4,2,1L26.7,2.8z M22.9,6c0,1.2,0.8,1.9,1.9,1.9c2.5,0,2.5-3.9,0-3.9C23.7,4,22.9,4.8,22.9,6z"/>
		<path d="M34.6,2.1L35.8,3l-0.7,0.9c0.5,0.6,0.7,1.2,0.7,1.9c0,0.8-0.3,1.9-1.4,2.4c1.1,0.5,1.3,1.3,1.3,2.1c0,1.8-1.4,2.9-3.2,2.9 c-1.9,0-3.3-1.1-3.3-2.9h1.6c0,0.8,0.8,1.4,1.7,1.4c0.9,0,1.6-0.5,1.6-1.4c0-0.9-0.8-1.3-1.6-1.3c-2,0-3.3-1.2-3.3-3.2 s1.5-3.2,3.3-3.2c0.5,0,1,0.1,1.5,0.4L34.6,2.1z M30.8,5.8c0,1.1,0.8,1.8,1.7,1.8c0.9,0,1.7-0.7,1.7-1.8S33.4,4,32.5,4 C31.6,4,30.8,4.7,30.8,5.8z"/>
		<path d="M41.5,9.2V5.8c0-1-0.5-1.7-1.5-1.7c-1,0-1.6,0.8-1.6,1.8v3.3h-1.6V2.8h1.4l0.1,0.9c0.7-0.6,1.3-1,2.1-1 c1.5,0,2.7,1.1,2.7,3.1v3.4H41.5z"/>
		<path d="M47.4,2.6c2,0,3.4,1.5,3.4,3.3c0,1.8-1.3,3.3-3.3,3.3S44.1,7.8,44.1,6C44.1,4.2,45.4,2.6,47.4,2.6z M47.4,4.1 c-1.1,0-1.7,0.9-1.7,1.9c0,1,0.6,1.9,1.7,1.9c1.2,0,1.7-0.9,1.7-1.9C49.2,5,48.5,4.1,47.4,4.1z M49.5,0h-1.9l-1,1.8v0.1h1.4L49.5,0 L49.5,0z"/>
		<path d="M56.1,4.5c-0.5-0.4-1-0.6-1.6-0.6c-0.8,0-1.2,0.2-1.2,0.6c0,0.4,0.4,0.6,1.2,0.7c1.2,0.1,2.7,0.4,2.7,2.1 c0,1.1-0.9,2.1-2.8,2.1c-1,0-2-0.2-3-1.1l0.8-1.1C52.8,7.6,53.8,8,54.5,8c0.6,0,1.2-0.3,1.2-0.8c0-0.4-0.4-0.6-1.3-0.7 c-1.2-0.1-2.7-0.5-2.7-2c0-1.5,1.5-2,2.7-2c1,0,1.8,0.2,2.5,0.8L56.1,4.5z"/>
		<path d="M60.5,1v1.8h1.8v1.4h-1.8v2.8c0,0.6,0.3,0.9,0.8,0.9c0.2,0,0.5-0.1,0.8-0.2L62.5,9c-0.5,0.2-0.8,0.3-1.3,0.3 c-1.4,0.1-2.3-0.7-2.3-2.3V4.2h-1.2V2.8h1.2V1.1L60.5,1z"/>
		<path d="M65.2,1c0,1.2-1.9,1.2-1.9,0S65.2-0.3,65.2,1z M63.4,2.8v6.4H65V2.8H63.4z"/>
		<path d="M72,8.4c-0.7,0.7-1.5,1-2.5,1c-1.9,0-3.4-1.1-3.4-3.4c0-2.3,1.5-3.4,3.4-3.4c0.9,0,1.6,0.3,2.3,0.9l-1,1.1 c-0.4-0.3-0.8-0.5-1.3-0.5c-1.1,0-1.8,0.8-1.8,1.9c0,1.2,0.8,1.9,1.8,1.9c0.5,0,1-0.1,1.4-0.5L72,8.4z"/>
		<path d="M79.2,6c0,1.8-1.3,3.3-3.3,3.3S72.5,7.8,72.5,6c0-1.8,1.3-3.3,3.3-3.3S79.2,4.2,79.2,6z M74.1,6c0,1,0.6,1.9,1.7,1.9 C77,7.9,77.6,7,77.6,6c0-1-0.7-1.9-1.7-1.9C74.7,4.1,74.1,5,74.1,6z"/>
		<path d="M87.1,9.2V5.8c0-0.8-0.4-1.6-1.3-1.6c-0.9,0-1.4,0.8-1.4,1.6v3.4h-1.6V2.8h1.5l0.1,0.8c0.3-0.6,1.1-0.9,1.7-0.9 c0.8,0,1.5,0.3,1.9,1.2c0.6-0.9,1.3-1.2,2.1-1.2c1.8,0,2.7,1.1,2.7,3v3.5h-1.6V5.7c0-0.8-0.4-1.6-1.2-1.6s-1.4,0.7-1.4,1.6v3.4 H87.1z"/>
		<path d="M100.9,6c0,1.8-1.3,3.3-3.3,3.3S94.2,7.8,94.2,6c0-1.8,1.3-3.3,3.3-3.3S100.9,4.2,100.9,6z M95.8,6c0,1,0.6,1.9,1.7,1.9 S99.3,7,99.3,6c0-1-0.7-1.9-1.7-1.9C96.4,4.1,95.8,5,95.8,6z"/>
		<path d="M103.6,0.1v9.1H102V0.1H103.6z"/>
		<path d="M106.3,6.5c0.1,0.8,0.8,1.4,1.9,1.4c0.6,0,1.4-0.2,1.7-0.6l1,1c-0.7,0.7-1.8,1-2.8,1c-2.2,0-3.5-1.4-3.5-3.4 c0-2,1.3-3.4,3.4-3.4c2.1,0,3.5,1.3,3.2,4H106.3z M109.8,5.2C109.7,4.4,109,4,108.1,4c-0.9,0-1.6,0.4-1.8,1.2H109.8z"/>
		<path d="M118,8.4c-0.7,0.7-1.5,1-2.5,1c-1.9,0-3.4-1.1-3.4-3.4c0-2.3,1.5-3.4,3.4-3.4c0.9,0,1.6,0.3,2.3,0.9l-1,1.1 c-0.4-0.3-0.8-0.5-1.3-0.5c-1.1,0-1.8,0.8-1.8,1.9c0,1.2,0.8,1.9,1.8,1.9c0.5,0,1-0.1,1.4-0.5L118,8.4z"/>
		<path d="M120.4,2.8v3.4c0,1,0.5,1.7,1.5,1.7c1,0,1.6-0.8,1.6-1.8V2.8h1.6v6.4h-1.4l-0.1-0.9c-0.7,0.6-1.3,1-2.2,1 c-1.5,0-2.7-1.2-2.7-3.1V2.8H120.4z"/>
		<path d="M128.1,0.1v9.1h-1.6V0.1H128.1z"/>
		<path d="M134.6,2.8h1.5v6.4h-1.5l-0.1-0.9c-0.4,0.8-1.4,1.1-2.1,1.1c-1.9,0-3.3-1.2-3.3-3.4c0-2.2,1.5-3.4,3.3-3.4 c0.9,0,1.7,0.4,2,1L134.6,2.8z M130.7,6c0,1.2,0.8,1.9,1.9,1.9c2.5,0,2.5-3.9,0-3.9C131.6,4,130.7,4.8,130.7,6z"/>
		<path d="M138.9,2.8l0.1,0.7c0.5-0.8,1.2-0.9,1.8-0.9c0.7,0,1.3,0.3,1.7,0.6l-0.7,1.4c-0.3-0.3-0.6-0.4-1.1-0.4 c-0.8,0-1.6,0.4-1.6,1.6v3.4h-1.6V2.8H138.9z"/>
		<path d="M144.9,8.4c0,1.2-1.9,1.2-1.9,0C143,7.1,144.9,7.1,144.9,8.4z"/>
	</g>
</svg>