<svg version="1.1" id="welcome_svg_first" xmlns="http://www.w3.org/2000/svg" xmlns:xlink="http://www.w3.org/1999/xlink" x="0px" y="0px" viewBox="0 0 63.7 13.4" style="enable-background:new 0 0 63.7 13.4;" xml:space="preserve">
	<g>
		<path d="M7.5,7.7H2.7L1.9,9.4H0.1l4.1-9.1H6l4.1,9.1H8.2L7.5,7.7z M5.1,2.2L3.4,6.1h3.4L5.1,2.2z"/>
		<path d="M15.4,9.4V6c0-1-0.5-1.7-1.5-1.7c-1,0-1.6,0.8-1.6,1.8v3.3h-1.6V3H12l0.1,0.9c0.6-0.6,1.3-1,2.1-1c1.5,0,2.7,1.1,2.7,3.1 v3.4H15.4z"/>
		<path d="M25,0.3v9.1h-1.5l-0.1-0.9c-0.5,0.8-1.3,1-2.1,1c-1.9,0-3.3-1.2-3.3-3.4c0-2.2,1.4-3.4,3.3-3.4c0.7,0,1.7,0.4,2.1,1V0.3H25 z M19.6,6.2c0,1.1,0.8,1.9,1.8,1.9c1,0,1.9-0.7,1.9-1.9c0-1.1-0.9-1.9-1.9-1.9C20.4,4.3,19.6,5,19.6,6.2z"/>
		<path d="M27.8,3l0.1,0.7c0.5-0.8,1.2-0.9,1.8-0.9c0.7,0,1.3,0.3,1.7,0.6l-0.7,1.4c-0.3-0.3-0.6-0.4-1.1-0.4c-0.8,0-1.6,0.4-1.6,1.6 v3.4h-1.6V3H27.8z"/>
		<path d="M38.4,6.2c0,1.8-1.3,3.3-3.3,3.3S31.7,8,31.7,6.2c0-1.8,1.3-3.3,3.3-3.3S38.4,4.3,38.4,6.2z M33.3,6.2c0,1,0.6,1.9,1.7,1.9 c1.2,0,1.7-0.9,1.7-1.9c0-1-0.7-1.9-1.7-1.9C33.9,4.3,33.3,5.2,33.3,6.2z"/>
		<path d="M44.5,2.3l1.2,0.9l-0.7,0.9c0.5,0.6,0.7,1.2,0.7,1.9c0,0.8-0.3,1.9-1.4,2.4c1.1,0.5,1.3,1.3,1.3,2.1c0,1.8-1.4,2.9-3.2,2.9 c-1.9,0-3.3-1.1-3.3-2.9h1.6c0,0.8,0.8,1.4,1.7,1.4c0.9,0,1.6-0.5,1.6-1.4c0-0.9-0.8-1.3-1.6-1.3c-2,0-3.3-1.2-3.3-3.2 c0-2,1.5-3.2,3.3-3.2c0.5,0,1,0.1,1.5,0.4L44.5,2.3z M40.7,6c0,1.1,0.8,1.8,1.7,1.8C43.3,7.8,44,7.1,44,6c0-1.1-0.8-1.8-1.7-1.8 C41.4,4.2,40.7,4.9,40.7,6z"/>
		<path d="M53,6.7h-5c0.1,0.8,0.8,1.4,1.9,1.4c0.6,0,1.4-0.2,1.7-0.6l1,1c-0.7,0.7-1.8,1-2.8,1c-2.2,0-3.5-1.4-3.5-3.4 c0-2,1.3-3.4,3.4-3.4C51.9,2.8,53.2,4.1,53,6.7z M48,5.4h3.5c-0.1-0.8-0.8-1.2-1.7-1.2C48.9,4.2,48.2,4.6,48,5.4z M51.6,0.1h-1.9 l-1,1.8v0.1h1.4L51.6,0.1L51.6,0.1z"/>
		<path d="M58.9,9.4V6c0-1-0.5-1.7-1.5-1.7c-1,0-1.6,0.8-1.6,1.8v3.3h-1.6V3h1.4l0.1,0.9c0.6-0.6,1.3-1,2.1-1c1.5,0,2.7,1.1,2.7,3.1 v3.4H58.9z"/>
		<path d="M63.7,8.6c0,1.2-1.9,1.2-1.9,0C61.8,7.3,63.7,7.3,63.7,8.6z"/>
	</g>
</svg>