<svg version="1.1" id="welcome_svg_second" class="welcome--text" xmlns="http://www.w3.org/2000/svg" xmlns:xlink="http://www.w3.org/1999/xlink" x="0px" y="0px" viewBox="0 0 111.7 13.4" style="enable-background:new 0 0 111.7 13.4;" xml:space="preserve">
	<g>
		<path d="M1.8,0.1v7.5h4.7v1.6H0.1V0.1H1.8z"/>
		<path d="M12.9,2.8h1.5v6.4h-1.5l-0.1-0.9c-0.4,0.8-1.4,1.1-2.1,1.1C8.9,9.4,7.5,8.3,7.5,6c0-2.2,1.5-3.4,3.3-3.4c0.9,0,1.7,0.4,2,1 L12.9,2.8z M9,6C9,7.2,9.9,8,10.9,8c2.5,0,2.5-3.9,0-3.9C9.9,4.1,9,4.8,9,6z"/>
		<path d="M17.2,0.1v3.5c0.4-0.7,1.4-1,2.1-1c1.9,0,3.3,1.1,3.3,3.4c0,2.1-1.4,3.4-3.3,3.4c-0.8,0-1.6-0.3-2.1-1l-0.1,0.9h-1.5V0.1 H17.2z M17.3,6c0,1.2,0.9,1.9,1.9,1.9c1,0,1.8-0.8,1.8-1.9c0-1.2-0.8-1.9-1.8-1.9C18.2,4.1,17.3,4.9,17.3,6z"/>
		<path d="M30.1,6c0,1.8-1.3,3.3-3.3,3.3S23.4,7.9,23.4,6c0-1.8,1.3-3.3,3.3-3.3S30.1,4.2,30.1,6z M25,6c0,1,0.6,1.9,1.7,1.9 c1.2,0,1.7-0.9,1.7-1.9c0-1-0.7-1.9-1.7-1.9C25.6,4.1,25,5.1,25,6z"/>
		<path d="M32.7,2.8l0.1,0.7c0.5-0.8,1.2-0.9,1.8-0.9c0.7,0,1.3,0.3,1.7,0.6l-0.7,1.4c-0.3-0.3-0.6-0.4-1.1-0.4 c-0.8,0-1.6,0.4-1.6,1.6v3.4h-1.6V2.8H32.7z"/>
		<path d="M41.9,2.8h1.5v6.4H42l-0.1-0.9c-0.4,0.8-1.4,1.1-2.1,1.1c-1.9,0-3.3-1.2-3.3-3.4c0-2.2,1.5-3.4,3.3-3.4c0.9,0,1.7,0.4,2,1 L41.9,2.8z M38.1,6C38.1,7.2,38.9,8,40,8c2.5,0,2.5-3.9,0-3.9C38.9,4.1,38.1,4.8,38.1,6z"/>
		<path d="M46.8,1v1.8h1.8v1.4h-1.8V7c0,0.6,0.3,0.9,0.8,0.9c0.2,0,0.5-0.1,0.8-0.2L48.8,9c-0.5,0.2-0.8,0.3-1.3,0.3 c-1.4,0.1-2.3-0.7-2.3-2.3V4.2H44V2.8h1.2V1.2L46.8,1z"/>
		<path d="M56.1,6c0,1.8-1.3,3.3-3.3,3.3S49.4,7.9,49.4,6c0-1.8,1.3-3.3,3.3-3.3S56.1,4.2,56.1,6z M51,6c0,1,0.6,1.9,1.7,1.9 c1.2,0,1.7-0.9,1.7-1.9c0-1-0.7-1.9-1.7-1.9C51.6,4.1,51,5.1,51,6z"/>
		<path d="M58.6,2.8l0.1,0.7c0.5-0.8,1.2-0.9,1.8-0.9c0.7,0,1.3,0.3,1.7,0.6l-0.7,1.4c-0.3-0.3-0.6-0.4-1.1-0.4 c-0.8,0-1.6,0.4-1.6,1.6v3.4h-1.6V2.8H58.6z"/>
		<path d="M64.5,1c0,1.2-1.9,1.2-1.9,0S64.5-0.2,64.5,1z M62.8,2.8v6.4h1.6V2.8H62.8z"/>
		<path d="M72.3,6c0,1.8-1.3,3.3-3.3,3.3S65.7,7.9,65.7,6c0-1.8,1.3-3.3,3.3-3.3S72.3,4.2,72.3,6z M67.3,6c0,1,0.6,1.9,1.7,1.9 c1.2,0,1.7-0.9,1.7-1.9c0-1-0.7-1.9-1.7-1.9C67.9,4.1,67.3,5.1,67.3,6z"/>
		<path d="M81.6,8.4c-0.7,0.7-1.5,1-2.5,1c-1.9,0-3.4-1.1-3.4-3.4s1.5-3.4,3.4-3.4c0.9,0,1.6,0.3,2.3,0.9l-1,1.1 c-0.4-0.3-0.8-0.5-1.3-0.5c-1.1,0-1.8,0.8-1.8,1.9c0,1.2,0.8,1.9,1.8,1.9c0.5,0,1-0.1,1.4-0.5L81.6,8.4z"/>
		<path d="M83.8,0.1v9.1h-1.6V0.1H83.8z"/>
		<path d="M85.2,9.2V3h1.7v6.2H85.2z M87.5,0.2h-1.7L85.3,2v0.1h1.3L87.5,0.2L87.5,0.2z"/>
		<path d="M93,9.2V5.9c0-1-0.5-1.7-1.5-1.7c-1,0-1.6,0.8-1.6,1.8v3.3h-1.6V2.8h1.4l0.1,0.9c0.6-0.6,1.3-1,2.1-1 c1.5,0,2.7,1.1,2.7,3.1v3.4H93z"/>
		<path d="M97.7,1c0,1.2-1.9,1.2-1.9,0S97.7-0.2,97.7,1z M96,2.8v6.4h1.6V2.8H96z"/>
		<path d="M104.5,8.4c-0.7,0.7-1.5,1-2.5,1c-1.9,0-3.4-1.1-3.4-3.4s1.5-3.4,3.4-3.4c0.9,0,1.6,0.3,2.3,0.9l-1,1.1 c-0.4-0.3-0.8-0.5-1.3-0.5c-1.1,0-1.8,0.8-1.8,1.9c0,1.2,0.8,1.9,1.8,1.9c0.5,0,1-0.1,1.4-0.5L104.5,8.4z"/>
		<path d="M111.7,6c0,1.8-1.3,3.3-3.3,3.3S105,7.9,105,6c0-1.8,1.3-3.3,3.3-3.3S111.7,4.2,111.7,6z M106.6,6c0,1,0.6,1.9,1.7,1.9 c1.2,0,1.7-0.9,1.7-1.9c0-1-0.7-1.9-1.7-1.9C107.2,4.1,106.6,5.1,106.6,6z"/>
	</g>
</svg>